<?xml version="1.0" encoding="UTF-8"?>
<svg width="16" height="16" viewBox="0 0 16 16" xmlns="http://www.w3.org/2000/svg">
  <rect x="2" y="3" width="12" height="10" rx="1" fill="#4CAF50" stroke="#2E7D32" stroke-width="1"/>
  <circle cx="4" cy="5" r="0.5" fill="#81C784"/>
  <circle cx="6" cy="5" r="0.5" fill="#81C784"/>
  <circle cx="8" cy="5" r="0.5" fill="#81C784"/>
  <circle cx="10" cy="5" r="0.5" fill="#81C784"/>
  <circle cx="12" cy="5" r="0.5" fill="#81C784"/>
  <circle cx="4" cy="7" r="0.5" fill="#81C784"/>
  <circle cx="6" cy="7" r="0.5" fill="#81C784"/>
  <circle cx="8" cy="7" r="0.5" fill="#81C784"/>
  <circle cx="10" cy="7" r="0.5" fill="#81C784"/>
  <circle cx="12" cy="7" r="0.5" fill="#81C784"/>
  <circle cx="4" cy="9" r="0.5" fill="#81C784"/>
  <circle cx="6" cy="9" r="0.5" fill="#81C784"/>
  <circle cx="8" cy="9" r="0.5" fill="#81C784"/>
  <circle cx="10" cy="9" r="0.5" fill="#81C784"/>
  <circle cx="12" cy="9" r="0.5" fill="#81C784"/>
  <circle cx="4" cy="11" r="0.5" fill="#81C784"/>
  <circle cx="6" cy="11" r="0.5" fill="#81C784"/>
  <circle cx="8" cy="11" r="0.5" fill="#81C784"/>
  <circle cx="10" cy="11" r="0.5" fill="#81C784"/>
  <circle cx="12" cy="11" r="0.5" fill="#81C784"/>
</svg>
